<svg xmlns="http://www.w3.org/2000/svg" viewBox="0 0 720 420" width="720" height="420" style="font-family:'Segoe UI',Arial,sans-serif;background:#fff">

    <!-- Grid -->
    <line x1="65" y1="340.18518518518516" x2="690" y2="340.18518518518516" stroke="#e0e0e0" stroke-width="0.5"/><text x="57" y="344.18518518518516" text-anchor="end" font-size="11" fill="#555">100</text><line x1="65" y1="278.14814814814815" x2="690" y2="278.14814814814815" stroke="#e0e0e0" stroke-width="0.5"/><text x="57" y="282.14814814814815" text-anchor="end" font-size="11" fill="#555">150</text><line x1="65" y1="216.11111111111111" x2="690" y2="216.11111111111111" stroke="#e0e0e0" stroke-width="0.5"/><text x="57" y="220.11111111111111" text-anchor="end" font-size="11" fill="#555">200</text><line x1="65" y1="154.07407407407408" x2="690" y2="154.07407407407408" stroke="#e0e0e0" stroke-width="0.5"/><text x="57" y="158.07407407407408" text-anchor="end" font-size="11" fill="#555">250</text><line x1="65" y1="92.03703703703707" x2="690" y2="92.03703703703707" stroke="#e0e0e0" stroke-width="0.5"/><text x="57" y="96.03703703703707" text-anchor="end" font-size="11" fill="#555">300</text>
    <!-- Bands -->
    <path d="M65.0,216.3 L86.6,221.1 L108.1,164.3 L129.7,203.8 L151.2,233.4 L172.8,258.9 L194.3,269.8 L215.9,212.0 L237.4,163.2 L259.0,175.7 L280.5,230.1 L302.1,287.2 L323.6,280.1 L345.2,280.3 L366.7,221.1 L388.3,145.9 L409.8,188.3 L431.4,211.5 L452.9,288.3 L474.5,314.8 L496.0,284.2 L517.6,277.8 L539.1,218.7 L560.7,205.4 L582.2,241.4 L603.8,315.4 L625.3,368.2 L646.9,316.8 L668.4,290.1 L690.0,242.4 M690.0,97.5 L668.4,154.1 L646.9,189.7 L625.3,250.1 L603.8,206.3 L582.2,141.1 L560.7,114.1 L539.1,136.3 L517.6,204.3 L496.0,219.7 L474.5,259.3 L452.9,241.6 L431.4,173.8 L409.8,159.5 L388.3,126.0 L366.7,201.2 L345.2,260.4 L323.6,260.3 L302.1,267.4 L280.5,210.3 L259.0,155.9 L237.4,143.4 L215.9,192.1 L194.3,250.0 L172.8,239.1 L151.2,213.6 L129.7,183.9 L108.1,144.5 L86.6,201.2 L65.0,196.5 Z" fill="#4a90d9" fill-opacity="0.15" stroke="none"/>
    <path d="M65.0,212.6 L86.6,217.4 L108.1,160.6 L129.7,200.1 L151.2,229.7 L172.8,255.2 L194.3,266.1 L215.9,208.2 L237.4,159.5 L259.0,172.0 L280.5,226.4 L302.1,283.5 L323.6,276.4 L345.2,276.5 L366.7,217.3 L388.3,142.1 L409.8,182.9 L431.4,204.4 L452.9,279.5 L474.5,304.4 L496.0,272.1 L517.6,264.0 L539.1,203.3 L560.7,188.3 L582.2,222.6 L603.8,295.0 L625.3,346.1 L646.9,293.0 L668.4,264.6 L690.0,215.3 M690.0,124.7 L668.4,179.6 L646.9,213.6 L625.3,272.2 L603.8,226.7 L582.2,159.9 L560.7,131.2 L539.1,151.8 L517.6,218.1 L496.0,231.8 L474.5,269.7 L452.9,250.4 L431.4,180.9 L409.8,164.9 L388.3,129.7 L366.7,204.9 L345.2,264.1 L323.6,264.0 L302.1,271.1 L280.5,214.0 L259.0,159.6 L237.4,147.1 L215.9,195.8 L194.3,253.7 L172.8,242.8 L151.2,217.3 L129.7,187.7 L108.1,148.2 L86.6,205.0 L65.0,200.2 Z" fill="#4a90d9" fill-opacity="0.3" stroke="none"/>
    <!-- Median -->
    <path d="M65.0,206.4 L86.6,211.2 L108.1,154.4 L129.7,193.9 L151.2,223.5 L172.8,249.0 L194.3,259.9 L215.9,202.0 L237.4,153.3 L259.0,165.8 L280.5,220.2 L302.1,277.3 L323.6,270.2 L345.2,270.3 L366.7,211.1 L388.3,135.9 L409.8,173.9 L431.4,192.7 L452.9,265.0 L474.5,287.0 L496.0,251.9 L517.6,241.1 L539.1,177.5 L560.7,159.8 L582.2,191.2 L603.8,260.9 L625.3,309.2 L646.9,253.3 L668.4,222.1 L690.0,170.0" fill="none" stroke="#2563eb" stroke-width="2"/>
    <!-- Actual -->
    <path d="M65.0,230.7 L86.6,231.2 L108.1,158.8 L129.7,219.3 L151.2,240.3 L172.8,222.6 L194.3,257.3 L215.9,217.7 L237.4,164.9 L259.0,158.2 L280.5,231.1 L302.1,286.5 L323.6,234.1 L345.2,253.5 L366.7,247.9 L388.3,132.8 L409.8,162.4 L431.4,173.2 L452.9,253.7 L474.5,278.8 L496.0,262.9 L517.6,239.4 L539.1,167.6 L560.7,157.9 L582.2,176.6 L603.8,290.4 L625.3,317.2 L646.9,290.3 L668.4,222.5 L690.0,175.6" fill="none" stroke="#111" stroke-width="1.8" stroke-dasharray="5,3"/>
    <!-- Forecast origin -->
    <line x1="388.2758620689655" y1="30" x2="388.2758620689655" y2="365" stroke="#e74c3c" stroke-width="1.5" stroke-dasharray="6,4"/>
    <text x="392.2758620689655" y="44" font-size="11" fill="#e74c3c">Forecast origin</text>
    <!-- Axes -->
    <line x1="65" y1="30" x2="65" y2="365" stroke="#333" stroke-width="1.2"/>
    <line x1="65" y1="365" x2="690" y2="365" stroke="#333" stroke-width="1.2"/>
    <line x1="65" y1="365" x2="65" y2="370" stroke="#999"/><text x="65" y="383" text-anchor="middle" font-size="11" fill="#555">t+0</text><line x1="172.75862068965517" y1="365" x2="172.75862068965517" y2="370" stroke="#999"/><text x="172.75862068965517" y="383" text-anchor="middle" font-size="11" fill="#555">t+5</text><line x1="280.51724137931035" y1="365" x2="280.51724137931035" y2="370" stroke="#999"/><text x="280.51724137931035" y="383" text-anchor="middle" font-size="11" fill="#555">t+10</text><line x1="388.2758620689655" y1="365" x2="388.2758620689655" y2="370" stroke="#999"/><text x="388.2758620689655" y="383" text-anchor="middle" font-size="11" fill="#555">t+15</text><line x1="496.0344827586207" y1="365" x2="496.0344827586207" y2="370" stroke="#999"/><text x="496.0344827586207" y="383" text-anchor="middle" font-size="11" fill="#555">t+20</text><line x1="603.7931034482758" y1="365" x2="603.7931034482758" y2="370" stroke="#999"/><text x="603.7931034482758" y="383" text-anchor="middle" font-size="11" fill="#555">t+25</text>
    <!-- Labels -->
    <text x="377.5" y="412" text-anchor="middle" font-size="12" fill="#333">Forecast Horizon</text>
    <text x="16" y="197.5" text-anchor="middle" font-size="12" fill="#333" transform="rotate(-90,16,197.5)">Demand (units)</text>
    <!-- Legend -->
    <rect x="490" y="34" width="195" height="72" rx="4" fill="white" fill-opacity="0.9" stroke="#ccc"/>
    <rect x="500" y="44" width="20" height="10" fill="#4a90d9" fill-opacity="0.15" stroke="#4a90d9" stroke-opacity="0.3"/>
    <text x="525" y="53" font-size="10" fill="#333">P10–P90</text>
    <rect x="500" y="60" width="20" height="10" fill="#4a90d9" fill-opacity="0.3"/>
    <text x="525" y="69" font-size="10" fill="#333">P25–P75</text>
    <line x1="500" y1="81" x2="520" y2="81" stroke="#2563eb" stroke-width="2"/>
    <text x="525" y="85" font-size="10" fill="#333">Median (P50)</text>
    <line x1="500" y1="96" x2="520" y2="96" stroke="#111" stroke-width="1.8" stroke-dasharray="5,3"/>
    <text x="525" y="100" font-size="10" fill="#333">Realised demand</text>
  
</svg>