<svg xmlns="http://www.w3.org/2000/svg" viewBox="0 0 680 460" width="680" height="460" style="font-family:'Segoe UI',Arial,sans-serif;background:#fff">

    <line x1="75" y1="30" x2="75" y2="405" stroke="#e8e8e8" stroke-width="0.5"/><text x="75" y="423" text-anchor="middle" font-size="11" fill="#555">80%</text><line x1="218.75" y1="30" x2="218.75" y2="405" stroke="#e8e8e8" stroke-width="0.5"/><text x="218.75" y="423" text-anchor="middle" font-size="11" fill="#555">85%</text><line x1="362.5" y1="30" x2="362.5" y2="405" stroke="#e8e8e8" stroke-width="0.5"/><text x="362.5" y="423" text-anchor="middle" font-size="11" fill="#555">90%</text><line x1="506.25" y1="30" x2="506.25" y2="405" stroke="#e8e8e8" stroke-width="0.5"/><text x="506.25" y="423" text-anchor="middle" font-size="11" fill="#555">95%</text><line x1="650" y1="30" x2="650" y2="405" stroke="#e8e8e8" stroke-width="0.5"/><text x="650" y="423" text-anchor="middle" font-size="11" fill="#555">100%</text><line x1="75" y1="387.95454545454544" x2="650" y2="387.95454545454544" stroke="#e8e8e8" stroke-width="0.5"/><text x="67" y="391.95454545454544" text-anchor="end" font-size="11" fill="#555">$50</text><line x1="75" y1="302.72727272727275" x2="650" y2="302.72727272727275" stroke="#e8e8e8" stroke-width="0.5"/><text x="67" y="306.72727272727275" text-anchor="end" font-size="11" fill="#555">$100</text><line x1="75" y1="217.5" x2="650" y2="217.5" stroke="#e8e8e8" stroke-width="0.5"/><text x="67" y="221.5" text-anchor="end" font-size="11" fill="#555">$150</text><line x1="75" y1="132.27272727272725" x2="650" y2="132.27272727272725" stroke="#e8e8e8" stroke-width="0.5"/><text x="67" y="136.27272727272725" text-anchor="end" font-size="11" fill="#555">$200</text><line x1="75" y1="47.045454545454504" x2="650" y2="47.045454545454504" stroke="#e8e8e8" stroke-width="0.5"/><text x="67" y="51.045454545454504" text-anchor="end" font-size="11" fill="#555">$250</text>
    <!-- Pareto frontier -->
    <path d="M463.1,294.2 L491.9,234.5 L535.0,226.0 L563.8,174.9 L606.9,140.8" fill="none" stroke="#2563eb" stroke-width="1.5" stroke-dasharray="6,3" opacity="0.6"/>
    <!-- Direction arrow -->
    <text x="592.5" y="353.8636363636364" font-size="11" fill="#888">← Better</text>
    <!-- Points -->
    <circle cx="606.9" cy="140.8" r="6" fill="#2563eb" fill-opacity="0.85" stroke="white" stroke-width="1.5"/>
<circle cx="535.0" cy="226.0" r="6" fill="#2563eb" fill-opacity="0.85" stroke="white" stroke-width="1.5"/>
<circle cx="463.1" cy="294.2" r="6" fill="#2563eb" fill-opacity="0.85" stroke="white" stroke-width="1.5"/>
<circle cx="621.3" cy="81.1" r="6" fill="#2563eb" fill-opacity="0.85" stroke="white" stroke-width="1.5"/>
<polygon points="563.75,168.88636363636363 569.75,174.88636363636363 563.75,180.88636363636363 557.75,174.88636363636363" fill="#16a34a" fill-opacity="0.85" stroke="white" stroke-width="1.2"/>
<polygon points="491.875,228.54545454545456 497.875,234.54545454545456 491.875,240.54545454545456 485.875,234.54545454545456" fill="#16a34a" fill-opacity="0.85" stroke="white" stroke-width="1.2"/>
<polygon points="391.25,279.6818181818182 397.25,285.6818181818182 391.25,291.6818181818182 385.25,285.6818181818182" fill="#16a34a" fill-opacity="0.85" stroke="white" stroke-width="1.2"/>
<polygon points="520.625,151.8409090909091 526.625,162.04090909090908 514.625,162.04090909090908" fill="#f59e0b" fill-opacity="0.85" stroke="white" stroke-width="1.2"/>
<polygon points="434.375,202.97727272727275 440.375,213.17727272727274 428.375,213.17727272727274" fill="#f59e0b" fill-opacity="0.85" stroke="white" stroke-width="1.2"/>
<polygon points="305,245.5909090909091 311,255.79090909090908 299,255.79090909090908" fill="#f59e0b" fill-opacity="0.85" stroke="white" stroke-width="1.2"/>
<rect x="328.75" y="127.27272727272725" width="10" height="10" fill="#e74c3c" fill-opacity="0.85" stroke="white" stroke-width="1.2"/>
<rect x="213.75" y="178.4090909090909" width="10" height="10" fill="#e74c3c" fill-opacity="0.85" stroke="white" stroke-width="1.2"/>
    <!-- Labels (offset) -->
    <text x="598.9" y="128.8" font-size="9.5" fill="#444" text-anchor="end">DRO + DeepAR</text>
<text x="545.0" y="240.0" font-size="9.5" fill="#444" text-anchor="start">DRO + TFT</text>
<text x="473.1" y="308.2" font-size="9.5" fill="#444" text-anchor="start">DRO + ETS</text>
<text x="613.3" y="69.1" font-size="9.5" fill="#444" text-anchor="end">DRO + Croston</text>
<text x="555.8" y="188.9" font-size="9.5" fill="#444" text-anchor="end">SP + DeepAR</text>
<text x="501.9" y="248.5" font-size="9.5" fill="#444" text-anchor="start">SP + TFT</text>
<text x="401.3" y="299.7" font-size="9.5" fill="#444" text-anchor="start">SP + ETS</text>
<text x="530.6" y="145.8" font-size="9.5" fill="#444" text-anchor="start">NV + DeepAR</text>
<text x="444.4" y="223.0" font-size="9.5" fill="#444" text-anchor="start">NV + TFT</text>
<text x="315.0" y="265.6" font-size="9.5" fill="#444" text-anchor="start">NV + ETS</text>
<text x="343.8" y="120.3" font-size="9.5" fill="#444" text-anchor="start">Point + ROP</text>
<text x="228.8" y="197.4" font-size="9.5" fill="#444" text-anchor="start">Point + (s,S)</text>
    <!-- Axes -->
    <line x1="75" y1="30" x2="75" y2="405" stroke="#333" stroke-width="1.2"/>
    <line x1="75" y1="405" x2="650" y2="405" stroke="#333" stroke-width="1.2"/>
    <!-- Labels -->
    <text x="362.5" y="452" text-anchor="middle" font-size="13" fill="#333">Service Level (%)</text>
    <text x="18" y="217.5" text-anchor="middle" font-size="13" fill="#333" transform="rotate(-90,18,217.5)">Expected Total Cost ($)</text>
    <!-- Legend -->
    <rect x="445" y="34" width="200" height="82" rx="4" fill="white" fill-opacity="0.92" stroke="#ccc"/>
    <circle cx="462" cy="50" r="5" fill="#2563eb"/>
    <text x="472" y="54" font-size="10.5" fill="#333">Distributionally Robust (DRO)</text>
    <polygon points="462,60 467,67 462,74 457,67" fill="#16a34a"/>
    <text x="472" y="71" font-size="10.5" fill="#333">Stochastic Program (SP)</text>
    <polygon points="462,80 467,90 457,90" fill="#f59e0b"/>
    <text x="472" y="88" font-size="10.5" fill="#333">Newsvendor (NV)</text>
    <rect x="457" y="96" width="10" height="10" fill="#e74c3c"/>
    <text x="472" y="105" font-size="10.5" fill="#333">Point Forecast Baseline</text>
  
</svg>