<svg xmlns="http://www.w3.org/2000/svg" viewBox="0 0 780 420" width="780" height="420" style="font-family:'Segoe UI',Arial,sans-serif;background:#fff">

    <!-- Border -->
    <rect x="65" y="35" width="690" height="310" fill="none" stroke="#ddd" stroke-width="0.5"/>
    <line x1="128" y1="337.7906976744186" x2="232" y2="337.7906976744186" stroke="#f0f0f0" stroke-width="0.5"/><text x="124" y="341.7906976744186" text-anchor="end" font-size="9.5" fill="#888">-4</text><line x1="128" y1="265.69767441860466" x2="232" y2="265.69767441860466" stroke="#f0f0f0" stroke-width="0.5"/><text x="124" y="269.69767441860466" text-anchor="end" font-size="9.5" fill="#888">1</text><line x1="128" y1="193.6046511627907" x2="232" y2="193.6046511627907" stroke="#f0f0f0" stroke-width="0.5"/><text x="124" y="197.6046511627907" text-anchor="end" font-size="9.5" fill="#888">6</text><line x1="128" y1="121.51162790697677" x2="232" y2="121.51162790697677" stroke="#f0f0f0" stroke-width="0.5"/><text x="124" y="125.51162790697677" text-anchor="end" font-size="9.5" fill="#888">11</text><line x1="128" y1="49.41860465116281" x2="232" y2="49.41860465116281" stroke="#f0f0f0" stroke-width="0.5"/><text x="124" y="53.41860465116281" text-anchor="end" font-size="9.5" fill="#888">16</text><!-- Model A (lower RMSE) --><line x1="154" y1="107.09302325581393" x2="154" y2="164.7674418604651" stroke="#e74c3c" stroke-width="1.5"/><line x1="154" y1="236.86046511627907" x2="154" y2="265.69767441860466" stroke="#e74c3c" stroke-width="1.5"/><line x1="144" y1="107.09302325581393" x2="164" y2="107.09302325581393" stroke="#e74c3c" stroke-width="1.5"/><line x1="144" y1="265.69767441860466" x2="164" y2="265.69767441860466" stroke="#e74c3c" stroke-width="1.5"/><rect x="133" y="164.7674418604651" width="42" height="72.09302325581396" fill="#e74c3c" fill-opacity="0.2" stroke="#e74c3c" stroke-width="1.8" rx="2"/><line x1="133" y1="200.8139534883721" x2="175" y2="200.8139534883721" stroke="#e74c3c" stroke-width="2.5"/><!-- Model B (better calibrated) --><line x1="206" y1="193.6046511627907" x2="206" y2="222.4418604651163" stroke="#2563eb" stroke-width="1.5"/><line x1="206" y1="258.48837209302326" x2="206" y2="272.90697674418607" stroke="#2563eb" stroke-width="1.5"/><line x1="196" y1="193.6046511627907" x2="216" y2="193.6046511627907" stroke="#2563eb" stroke-width="1.5"/><line x1="196" y1="272.90697674418607" x2="216" y2="272.90697674418607" stroke="#2563eb" stroke-width="1.5"/><rect x="185" y="222.4418604651163" width="42" height="36.046511627906966" fill="#2563eb" fill-opacity="0.2" stroke="#2563eb" stroke-width="1.8" rx="2"/><line x1="185" y1="239.74418604651163" x2="227" y2="239.74418604651163" stroke="#2563eb" stroke-width="2.5"/><text x="180" y="367" text-anchor="middle" font-size="12" fill="#333" font-weight="600">Stockout Rate (%)</text><line x1="295" y1="35" x2="295" y2="345" stroke="#ddd" stroke-width="1" stroke-dasharray="4,4"/><line x1="358" y1="345" x2="462" y2="345" stroke="#f0f0f0" stroke-width="0.5"/><text x="354" y="349" text-anchor="end" font-size="9.5" fill="#888">7</text><line x1="358" y1="283" x2="462" y2="283" stroke="#f0f0f0" stroke-width="0.5"/><text x="354" y="287" text-anchor="end" font-size="9.5" fill="#888">15</text><line x1="358" y1="221" x2="462" y2="221" stroke="#f0f0f0" stroke-width="0.5"/><text x="354" y="225" text-anchor="end" font-size="9.5" fill="#888">23</text><line x1="358" y1="159" x2="462" y2="159" stroke="#f0f0f0" stroke-width="0.5"/><text x="354" y="163" text-anchor="end" font-size="9.5" fill="#888">31</text><line x1="358" y1="97" x2="462" y2="97" stroke="#f0f0f0" stroke-width="0.5"/><text x="354" y="101" text-anchor="end" font-size="9.5" fill="#888">39</text><line x1="358" y1="35" x2="462" y2="35" stroke="#f0f0f0" stroke-width="0.5"/><text x="354" y="39" text-anchor="end" font-size="9.5" fill="#888">47</text><!-- Model A (lower RMSE) --><line x1="384" y1="104.75" x2="384" y2="182.25" stroke="#e74c3c" stroke-width="1.5"/><line x1="384" y1="259.75" x2="384" y2="306.25" stroke="#e74c3c" stroke-width="1.5"/><line x1="374" y1="104.75" x2="394" y2="104.75" stroke="#e74c3c" stroke-width="1.5"/><line x1="374" y1="306.25" x2="394" y2="306.25" stroke="#e74c3c" stroke-width="1.5"/><rect x="363" y="182.25" width="42" height="77.5" fill="#e74c3c" fill-opacity="0.2" stroke="#e74c3c" stroke-width="1.8" rx="2"/><line x1="363" y1="228.75" x2="405" y2="228.75" stroke="#e74c3c" stroke-width="2.5"/><!-- Model B (better calibrated) --><line x1="436" y1="73.75" x2="436" y2="135.75" stroke="#2563eb" stroke-width="1.5"/><line x1="436" y1="213.25" x2="436" y2="259.75" stroke="#2563eb" stroke-width="1.5"/><line x1="426" y1="73.75" x2="446" y2="73.75" stroke="#2563eb" stroke-width="1.5"/><line x1="426" y1="259.75" x2="446" y2="259.75" stroke="#2563eb" stroke-width="1.5"/><rect x="415" y="135.75" width="42" height="77.5" fill="#2563eb" fill-opacity="0.2" stroke="#2563eb" stroke-width="1.8" rx="2"/><line x1="415" y1="174.5" x2="457" y2="174.5" stroke="#2563eb" stroke-width="2.5"/><text x="410" y="367" text-anchor="middle" font-size="12" fill="#333" font-weight="600">Holding Cost ($K)</text><line x1="525" y1="35" x2="525" y2="345" stroke="#ddd" stroke-width="1" stroke-dasharray="4,4"/><line x1="588" y1="345" x2="692" y2="345" stroke="#f0f0f0" stroke-width="0.5"/><text x="584" y="349" text-anchor="end" font-size="9.5" fill="#888">25</text><line x1="588" y1="283" x2="692" y2="283" stroke="#f0f0f0" stroke-width="0.5"/><text x="584" y="287" text-anchor="end" font-size="9.5" fill="#888">43</text><line x1="588" y1="221" x2="692" y2="221" stroke="#f0f0f0" stroke-width="0.5"/><text x="584" y="225" text-anchor="end" font-size="9.5" fill="#888">61</text><line x1="588" y1="159" x2="692" y2="159" stroke="#f0f0f0" stroke-width="0.5"/><text x="584" y="163" text-anchor="end" font-size="9.5" fill="#888">79</text><line x1="588" y1="97" x2="692" y2="97" stroke="#f0f0f0" stroke-width="0.5"/><text x="584" y="101" text-anchor="end" font-size="9.5" fill="#888">97</text><line x1="588" y1="35" x2="692" y2="35" stroke="#f0f0f0" stroke-width="0.5"/><text x="584" y="39" text-anchor="end" font-size="9.5" fill="#888">115</text><!-- Model A (lower RMSE) --><line x1="614" y1="52.22222222222223" x2="614" y2="138.33333333333334" stroke="#e74c3c" stroke-width="1.5"/><line x1="614" y1="231.33333333333334" x2="614" y2="276.1111111111111" stroke="#e74c3c" stroke-width="1.5"/><line x1="604" y1="52.22222222222223" x2="624" y2="52.22222222222223" stroke="#e74c3c" stroke-width="1.5"/><line x1="604" y1="276.1111111111111" x2="624" y2="276.1111111111111" stroke="#e74c3c" stroke-width="1.5"/><rect x="593" y="138.33333333333334" width="42" height="93" fill="#e74c3c" fill-opacity="0.2" stroke="#e74c3c" stroke-width="1.8" rx="2"/><line x1="593" y1="183.11111111111111" x2="635" y2="183.11111111111111" stroke="#e74c3c" stroke-width="2.5"/><!-- Model B (better calibrated) --><line x1="666" y1="162.44444444444443" x2="666" y2="217.55555555555554" stroke="#2563eb" stroke-width="1.5"/><line x1="666" y1="286.44444444444446" x2="666" y2="327.77777777777777" stroke="#2563eb" stroke-width="1.5"/><line x1="656" y1="162.44444444444443" x2="676" y2="162.44444444444443" stroke="#2563eb" stroke-width="1.5"/><line x1="656" y1="327.77777777777777" x2="676" y2="327.77777777777777" stroke="#2563eb" stroke-width="1.5"/><rect x="645" y="217.55555555555554" width="42" height="68.88888888888891" fill="#2563eb" fill-opacity="0.2" stroke="#2563eb" stroke-width="1.8" rx="2"/><line x1="645" y1="252" x2="687" y2="252" stroke="#2563eb" stroke-width="2.5"/><text x="640" y="367" text-anchor="middle" font-size="12" fill="#333" font-weight="600">Total Cost ($K)</text>
    <!-- Legend -->
    <rect x="240" y="380" width="340" height="30" rx="4" fill="white" stroke="#ccc"/>
    <rect x="255" y="387" width="16" height="16" fill="#e74c3c" fill-opacity="0.2" stroke="#e74c3c" stroke-width="1.5" rx="2"/>
    <text x="277" y="399" font-size="11" fill="#333">Model A (lower RMSE)</text>
    <rect x="440" y="387" width="16" height="16" fill="#2563eb" fill-opacity="0.2" stroke="#2563eb" stroke-width="1.5" rx="2"/>
    <text x="462" y="399" font-size="11" fill="#333">Model B (better calibrated)</text>
  
</svg>